<mxfile host="app.diagrams.net" modified="2020-09-10T08:46:44.215Z" agent="5.0 (Windows)" etag="T7Zu0-1Br_xrgPrtoXt4" version="13.6.9" type="github">
  <diagram id="C5RBs43oDa-KdzZeNtuy" name="Page-1">
    <mxGraphModel dx="1185" dy="659" grid="1" gridSize="10" guides="1" tooltips="1" connect="1" arrows="1" fold="1" page="1" pageScale="1" pageWidth="827" pageHeight="1169" math="0" shadow="0">
      <root>
        <mxCell id="WIyWlLk6GJQsqaUBKTNV-0" />
        <mxCell id="WIyWlLk6GJQsqaUBKTNV-1" parent="WIyWlLk6GJQsqaUBKTNV-0" />
        <UserObject label="Player  " lucidchartObjectId="ntjuT3nZr8Bf" id="moo5Tzq9hZA2lcqmyx5m-0">
          <mxCell style="html=1;whiteSpace=wrap;fontSize=15;fontColor=#666666;spacingLeft=6.72;spacingRight=11.2;spacingTop=3.2;spacing=3;verticalAlign=top;strokeColor=#666666;strokeOpacity=100;fillOpacity=100;shadow=1;fillColor=#ffffff;" vertex="1" zOrder="66" parent="WIyWlLk6GJQsqaUBKTNV-1">
            <mxGeometry x="72" y="240" width="192" height="228" as="geometry" />
          </mxCell>
        </UserObject>
        <UserObject label="&lt;div style=&quot;font-size:9px;color:#666666;text-align: center;margin-left: 7px;margin-right: 7px;margin-top: 2px;&quot;&gt;Health StressLevel Speed&#xa;&lt;/div&gt;&lt;div style=&quot;font-size:9px;color:#666666;text-align: center;margin-left: 7px;margin-right: 7px;margin-top: 2px;&quot;&gt;AttackDamage&lt;/div&gt;" lucidchartObjectId="Ayju4ADm1-er" id="moo5Tzq9hZA2lcqmyx5m-1">
          <mxCell style="html=1;whiteSpace=wrap;;overflow=width;spacing=3;strokeColor=#666666;strokeOpacity=100;fillOpacity=100;shadow=1;fillColor=#ffffff;" vertex="1" zOrder="69" parent="WIyWlLk6GJQsqaUBKTNV-1">
            <mxGeometry x="72" y="288" width="96" height="60" as="geometry" />
          </mxCell>
        </UserObject>
        <UserObject label="PlayerOutfitData" lucidchartObjectId="TCjucVvRxw3." id="moo5Tzq9hZA2lcqmyx5m-2">
          <mxCell style="html=1;whiteSpace=wrap;;fontSize=9;fontColor=#666666;align=center;spacingLeft=6.72;spacingRight=11.2;spacingTop=3.2;spacing=3;strokeColor=#666666;strokeOpacity=100;fillOpacity=100;shadow=1;fillColor=#ffffff;" vertex="1" zOrder="70" parent="WIyWlLk6GJQsqaUBKTNV-1">
            <mxGeometry x="168" y="288" width="96" height="60" as="geometry" />
          </mxCell>
        </UserObject>
        <UserObject label="Rigidbody2D" lucidchartObjectId="EDjuiFjKUQ~k" id="moo5Tzq9hZA2lcqmyx5m-3">
          <mxCell style="html=1;whiteSpace=wrap;fontSize=9;fontColor=#666666;align=center;spacingLeft=6.72;spacingRight=11.2;spacingTop=3.2;spacing=3;strokeColor=#666666;strokeOpacity=100;fillOpacity=100;shadow=1;fillColor=#ffffff;" vertex="1" zOrder="71" parent="WIyWlLk6GJQsqaUBKTNV-1">
            <mxGeometry x="72" y="348" width="192" height="60" as="geometry" />
          </mxCell>
        </UserObject>
        <UserObject label="Animator" lucidchartObjectId="dEjumR9HzCHo" id="moo5Tzq9hZA2lcqmyx5m-4">
          <mxCell style="html=1;whiteSpace=wrap;fontSize=9;fontColor=#666666;align=center;spacingLeft=6.72;spacingRight=11.2;spacingTop=3.2;spacing=3;strokeColor=#666666;strokeOpacity=100;fillOpacity=100;shadow=1;fillColor=#ffffff;" vertex="1" zOrder="72" parent="WIyWlLk6GJQsqaUBKTNV-1">
            <mxGeometry x="72" y="408" width="192" height="60" as="geometry" />
          </mxCell>
        </UserObject>
        <UserObject label="&lt;div&gt;GameManger&lt;/div&gt;&lt;div&gt; Сохранение данных Настройка сцены&lt;/div&gt;" lucidchartObjectId="fGjuQAu4pZyn" id="moo5Tzq9hZA2lcqmyx5m-5">
          <mxCell style="html=1;whiteSpace=wrap;fontSize=9;fontColor=#666666;align=left;spacingLeft=6.72;spacingRight=11.2;spacingTop=3.2;spacing=3;verticalAlign=middle;strokeColor=#666666;strokeOpacity=100;fillOpacity=100;shadow=1;fillColor=#ffffff;" vertex="1" zOrder="74" parent="WIyWlLk6GJQsqaUBKTNV-1">
            <mxGeometry x="300" width="144" height="96" as="geometry" />
          </mxCell>
        </UserObject>
        <UserObject label="" lucidchartObjectId="DSjuWwIoOCx1" id="moo5Tzq9hZA2lcqmyx5m-6">
          <mxCell style="html=1;jettySize=18;overflow=width;strokeColor=#666666;strokeOpacity=100;rounded=1;arcSize=0;edgeStyle=orthogonalEdgeStyle;startArrow=none;;endArrow=block;endFill=1;;exitX=-0.0031249999999999113;exitY=0.6451324910047772;exitPerimeter=1;entryX=0.11167262240953835;entryY=0.5606402269582951;entryPerimeter=1;" edge="1" parent="WIyWlLk6GJQsqaUBKTNV-1" source="moo5Tzq9hZA2lcqmyx5m-1" target="moo5Tzq9hZA2lcqmyx5m-3">
            <mxGeometry width="100" height="100" relative="1" as="geometry">
              <Array as="points">
                <mxPoint x="48" y="318" />
                <mxPoint x="48" y="365" />
              </Array>
            </mxGeometry>
          </mxCell>
        </UserObject>
        <UserObject label="" lucidchartObjectId="mTjurT6LECya" id="moo5Tzq9hZA2lcqmyx5m-7">
          <mxCell style="html=1;jettySize=18;overflow=width;strokeColor=#666666;strokeOpacity=100;rounded=1;arcSize=0;edgeStyle=orthogonalEdgeStyle;startArrow=none;;endArrow=block;endFill=1;;exitX=0.5;exitY=1.003125;exitPerimeter=1;entryX=0.13476019438719467;entryY=0.2865552746245452;entryPerimeter=1;" edge="1" parent="WIyWlLk6GJQsqaUBKTNV-1" source="moo5Tzq9hZA2lcqmyx5m-5" target="moo5Tzq9hZA2lcqmyx5m-1">
            <mxGeometry width="100" height="100" relative="1" as="geometry">
              <Array as="points">
                <mxPoint x="36" y="144" />
                <mxPoint x="36" y="305" />
              </Array>
            </mxGeometry>
          </mxCell>
        </UserObject>
        <UserObject label="" lucidchartObjectId="WUjurPf9QA-q" id="moo5Tzq9hZA2lcqmyx5m-8">
          <mxCell style="html=1;jettySize=18;overflow=width;strokeColor=#666666;strokeOpacity=100;rounded=1;arcSize=0;edgeStyle=orthogonalEdgeStyle;startArrow=none;;endArrow=block;endFill=1;;exitX=0.5;exitY=1.003125;exitPerimeter=1;entryX=0.9282174651828698;entryY=0.1750449779947627;entryPerimeter=1;" edge="1" parent="WIyWlLk6GJQsqaUBKTNV-1" source="moo5Tzq9hZA2lcqmyx5m-5" target="moo5Tzq9hZA2lcqmyx5m-2">
            <mxGeometry width="100" height="100" relative="1" as="geometry">
              <Array as="points" />
            </mxGeometry>
          </mxCell>
        </UserObject>
        <UserObject label="&lt;div&gt;UI  &lt;br&gt;&lt;/div&gt;&lt;div&gt;Меню паузы Список заданий &lt;/div&gt;&lt;div&gt;Уровень стресса&lt;/div&gt;" lucidchartObjectId="PZjug51O-KaM" id="moo5Tzq9hZA2lcqmyx5m-9">
          <mxCell style="html=1;whiteSpace=wrap;fontSize=9;fontColor=#666666;spacingLeft=6.72;spacingRight=11.2;spacingTop=3.2;spacing=3;verticalAlign=top;strokeColor=#666666;strokeOpacity=100;fillOpacity=100;shadow=1;fillColor=#ffffff;" vertex="1" zOrder="78" parent="WIyWlLk6GJQsqaUBKTNV-1">
            <mxGeometry x="396" y="132" width="96" height="72" as="geometry" />
          </mxCell>
        </UserObject>
        <UserObject label="" lucidchartObjectId="5ZjuuuIvN4nF" id="moo5Tzq9hZA2lcqmyx5m-10">
          <mxCell style="html=1;jettySize=18;overflow=width;strokeColor=#666666;strokeOpacity=100;rounded=1;arcSize=0;edgeStyle=orthogonalEdgeStyle;startArrow=none;;endArrow=block;endFill=1;;exitX=0.49719471156496503;exitY=0.9670793513045123;exitPerimeter=1;entryX=0.5;entryY=-0.004166666666666667;entryPerimeter=1;" edge="1" parent="WIyWlLk6GJQsqaUBKTNV-1" source="moo5Tzq9hZA2lcqmyx5m-5" target="moo5Tzq9hZA2lcqmyx5m-9">
            <mxGeometry width="100" height="100" relative="1" as="geometry">
              <Array as="points" />
            </mxGeometry>
          </mxCell>
        </UserObject>
        <UserObject label="" lucidchartObjectId="H1jutpqqxwWG" id="moo5Tzq9hZA2lcqmyx5m-11">
          <mxCell style="html=1;jettySize=18;overflow=width;strokeColor=#666666;strokeOpacity=100;rounded=1;arcSize=0;edgeStyle=orthogonalEdgeStyle;startArrow=none;;endArrow=block;endFill=1;;exitX=1.003125;exitY=0.5000000000000001;exitPerimeter=1;entryX=0.5;entryY=1.0041666666666667;entryPerimeter=1;" edge="1" parent="WIyWlLk6GJQsqaUBKTNV-1" source="moo5Tzq9hZA2lcqmyx5m-1" target="moo5Tzq9hZA2lcqmyx5m-9">
            <mxGeometry width="100" height="100" relative="1" as="geometry">
              <Array as="points">
                <mxPoint x="174" y="318" />
                <mxPoint x="174" y="330" />
                <mxPoint x="432" y="330" />
                <mxPoint x="432" y="204" />
              </Array>
            </mxGeometry>
          </mxCell>
        </UserObject>
        <UserObject label="&lt;div&gt;QuestManager&lt;/div&gt;&lt;div&gt; Добавление заданий &lt;/div&gt;&lt;div&gt;Выполнение заданий&lt;/div&gt;" lucidchartObjectId="_9juNuwTbpwu" id="moo5Tzq9hZA2lcqmyx5m-12">
          <mxCell style="html=1;whiteSpace=wrap;fontSize=9;fontColor=#666666;align=center;spacingLeft=6.72;spacingRight=11.2;spacingTop=3.2;spacing=3;strokeColor=#666666;strokeOpacity=100;fillOpacity=100;shadow=1;fillColor=#ffffff;" vertex="1" zOrder="81" parent="WIyWlLk6GJQsqaUBKTNV-1">
            <mxGeometry x="588" y="12" width="156" height="84" as="geometry" />
          </mxCell>
        </UserObject>
        <UserObject label="Отображение заданий" lucidchartObjectId="A-juPD-ZMXL6" id="moo5Tzq9hZA2lcqmyx5m-14">
          <mxCell style="html=1;whiteSpace=wrap;;fontSize=9;fontColor=#666666;align=center;spacingLeft=6.72;spacingRight=11.2;spacingTop=3.2;spacing=3;strokeOpacity=0;fillOpacity=0;shadow=1;fillColor=#ffffff;" vertex="1" zOrder="83" parent="WIyWlLk6GJQsqaUBKTNV-1">
            <mxGeometry x="492" y="144" width="144" height="36" as="geometry" />
          </mxCell>
        </UserObject>
        <UserObject label="Enemy" lucidchartObjectId="1WwuVRpeGKuc" id="moo5Tzq9hZA2lcqmyx5m-15">
          <mxCell style="html=1;whiteSpace=wrap;fontSize=15;fontColor=#666666;spacingLeft=6.72;spacingRight=11.2;spacingTop=3.2;spacing=3;verticalAlign=top;strokeColor=#666666;strokeOpacity=100;fillOpacity=100;shadow=1;fillColor=#ffffff;" vertex="1" zOrder="84" parent="WIyWlLk6GJQsqaUBKTNV-1">
            <mxGeometry x="552" y="240" width="192" height="228" as="geometry" />
          </mxCell>
        </UserObject>
        <UserObject label="&lt;div style=&quot;font-size:9px;color:#666666;text-align: center;margin-left: 7px;margin-right: 7px;margin-top: 2px;&quot;&gt;Health&#xa;&lt;/div&gt;&lt;div style=&quot;font-size:9px;color:#666666;text-align: center;margin-left: 7px;margin-right: 7px;margin-top: 2px;&quot;&gt;Speed AttckDamage&lt;/div&gt;" lucidchartObjectId="1WwuDGHSSzW9" id="moo5Tzq9hZA2lcqmyx5m-16">
          <mxCell style="html=1;whiteSpace=wrap;;overflow=width;spacing=3;strokeColor=#666666;strokeOpacity=100;fillOpacity=100;shadow=1;fillColor=#ffffff;" vertex="1" zOrder="87" parent="WIyWlLk6GJQsqaUBKTNV-1">
            <mxGeometry x="552" y="288" width="192" height="60" as="geometry" />
          </mxCell>
        </UserObject>
        <UserObject label="Rigidbody2D" lucidchartObjectId="1WwuUmQD2XjK" id="moo5Tzq9hZA2lcqmyx5m-17">
          <mxCell style="html=1;whiteSpace=wrap;fontSize=9;fontColor=#666666;align=center;spacingLeft=6.72;spacingRight=11.2;spacingTop=3.2;spacing=3;strokeColor=#666666;strokeOpacity=100;fillOpacity=100;shadow=1;fillColor=#ffffff;" vertex="1" zOrder="89" parent="WIyWlLk6GJQsqaUBKTNV-1">
            <mxGeometry x="552" y="348" width="192" height="60" as="geometry" />
          </mxCell>
        </UserObject>
        <UserObject label="Animator" lucidchartObjectId="1WwuqPD42cWB" id="moo5Tzq9hZA2lcqmyx5m-18">
          <mxCell style="html=1;whiteSpace=wrap;fontSize=9;fontColor=#666666;align=center;spacingLeft=6.72;spacingRight=11.2;spacingTop=3.2;spacing=3;strokeColor=#666666;strokeOpacity=100;fillOpacity=100;shadow=1;fillColor=#ffffff;" vertex="1" zOrder="90" parent="WIyWlLk6GJQsqaUBKTNV-1">
            <mxGeometry x="552" y="408" width="192" height="60" as="geometry" />
          </mxCell>
        </UserObject>
        <UserObject label="" lucidchartObjectId="l2wu~mgcXmOQ" id="moo5Tzq9hZA2lcqmyx5m-19">
          <mxCell style="html=1;jettySize=18;overflow=width;strokeColor=#666666;strokeOpacity=100;rounded=1;arcSize=0;edgeStyle=orthogonalEdgeStyle;startArrow=none;;endArrow=block;endFill=1;;exitX=-0.0015624999999999997;exitY=0.10982232262519206;exitPerimeter=1;entryX=1.0015625;entryY=0.10982232262519229;entryPerimeter=1;" edge="1" parent="WIyWlLk6GJQsqaUBKTNV-1" source="moo5Tzq9hZA2lcqmyx5m-15" target="moo5Tzq9hZA2lcqmyx5m-0">
            <mxGeometry width="100" height="100" relative="1" as="geometry">
              <Array as="points" />
            </mxGeometry>
          </mxCell>
        </UserObject>
        <UserObject label="" lucidchartObjectId="F2wu.S6pgfA0" id="moo5Tzq9hZA2lcqmyx5m-20">
          <mxCell style="html=1;jettySize=18;overflow=width;strokeColor=#666666;strokeOpacity=100;rounded=1;arcSize=0;edgeStyle=orthogonalEdgeStyle;startArrow=none;;endArrow=block;endFill=1;;exitX=1.0015625;exitY=0.142949247281405;exitPerimeter=1;entryX=-0.001562499999999911;entryY=0.142949247281405;entryPerimeter=1;" edge="1" parent="WIyWlLk6GJQsqaUBKTNV-1" source="moo5Tzq9hZA2lcqmyx5m-0" target="moo5Tzq9hZA2lcqmyx5m-15">
            <mxGeometry width="100" height="100" relative="1" as="geometry">
              <Array as="points" />
            </mxGeometry>
          </mxCell>
        </UserObject>
        <UserObject label="&lt;div&gt;AudioManager  &lt;/div&gt;&lt;div&gt;Управление всеми звуками&lt;/div&gt;&lt;div&gt; Настройка громкости&lt;/div&gt;" lucidchartObjectId="T2wuJ2KeSoPX" id="moo5Tzq9hZA2lcqmyx5m-21">
          <mxCell style="html=1;whiteSpace=wrap;fontSize=9;fontColor=#666666;align=center;spacingLeft=6.72;spacingRight=11.2;spacingTop=3.2;spacing=3;strokeColor=#666666;strokeOpacity=100;fillOpacity=100;shadow=1;fillColor=#ffffff;" vertex="1" zOrder="94" parent="WIyWlLk6GJQsqaUBKTNV-1">
            <mxGeometry x="348" y="552" width="144" height="122" as="geometry" />
          </mxCell>
        </UserObject>
        <UserObject label="" lucidchartObjectId="C3wuB.fIRSld" id="moo5Tzq9hZA2lcqmyx5m-22">
          <mxCell style="html=1;jettySize=18;overflow=width;strokeColor=#666666;strokeOpacity=100;rounded=1;arcSize=0;edgeStyle=orthogonalEdgeStyle;startArrow=none;;endArrow=block;endFill=1;;exitX=1.0015625;exitY=0.12186847704563326;exitPerimeter=1;entryX=1.0020833333333334;entryY=0.5;entryPerimeter=1;" edge="1" parent="WIyWlLk6GJQsqaUBKTNV-1" source="moo5Tzq9hZA2lcqmyx5m-15" target="moo5Tzq9hZA2lcqmyx5m-21">
            <mxGeometry width="100" height="100" relative="1" as="geometry">
              <Array as="points">
                <mxPoint x="792" y="268" />
                <mxPoint x="792" y="613" />
              </Array>
            </mxGeometry>
          </mxCell>
        </UserObject>
        <UserObject label="" lucidchartObjectId="K3wu5SitENHj" id="moo5Tzq9hZA2lcqmyx5m-23">
          <mxCell style="html=1;jettySize=18;overflow=width;strokeColor=#666666;strokeOpacity=100;rounded=1;arcSize=0;edgeStyle=orthogonalEdgeStyle;startArrow=none;;endArrow=block;endFill=1;;exitX=-0.0015624999999999997;exitY=0.12186847704563311;exitPerimeter=1;entryX=-0.0020833333333332743;entryY=0.5;entryPerimeter=1;" edge="1" parent="WIyWlLk6GJQsqaUBKTNV-1" source="moo5Tzq9hZA2lcqmyx5m-0" target="moo5Tzq9hZA2lcqmyx5m-21">
            <mxGeometry width="100" height="100" relative="1" as="geometry">
              <Array as="points">
                <mxPoint x="24" y="268" />
                <mxPoint x="24" y="613" />
              </Array>
            </mxGeometry>
          </mxCell>
        </UserObject>
        <UserObject label="" lucidchartObjectId="Z3wuSPvNJUNv" id="moo5Tzq9hZA2lcqmyx5m-24">
          <mxCell style="html=1;jettySize=18;overflow=width;strokeColor=#666666;strokeOpacity=100;rounded=1;arcSize=0;edgeStyle=orthogonalEdgeStyle;startArrow=none;;endArrow=block;endFill=1;;exitX=0.6671108053817015;exitY=1.0041666666666667;exitPerimeter=1;entryX=0.7780738702544677;entryY=-0.002467917077986248;entryPerimeter=1;" edge="1" parent="WIyWlLk6GJQsqaUBKTNV-1" source="moo5Tzq9hZA2lcqmyx5m-9" target="moo5Tzq9hZA2lcqmyx5m-21">
            <mxGeometry width="100" height="100" relative="1" as="geometry">
              <Array as="points" />
            </mxGeometry>
          </mxCell>
        </UserObject>
        <mxCell id="moo5Tzq9hZA2lcqmyx5m-26" value="" style="endArrow=none;html=1;exitX=0;exitY=0.75;exitDx=0;exitDy=0;" edge="1" parent="WIyWlLk6GJQsqaUBKTNV-1" source="moo5Tzq9hZA2lcqmyx5m-14" target="moo5Tzq9hZA2lcqmyx5m-12">
          <mxGeometry width="50" height="50" relative="1" as="geometry">
            <mxPoint x="590" y="160" as="sourcePoint" />
            <mxPoint x="640" y="110" as="targetPoint" />
            <Array as="points">
              <mxPoint x="664" y="171" />
            </Array>
          </mxGeometry>
        </mxCell>
      </root>
    </mxGraphModel>
  </diagram>
</mxfile>
